<svg width="24" height="15" viewBox="0 0 24 15" fill="none" xmlns="http://www.w3.org/2000/svg">
<path d="M1.2 2.14286H22.8C23.1183 2.14286 23.4235 2.02997 23.6485 1.82904C23.8736 1.62811 24 1.35559 24 1.07143C24 0.787268 23.8736 0.514746 23.6485 0.313814C23.4235 0.112883 23.1183 0 22.8 0H1.2C0.88174 0 0.576515 0.112883 0.351472 0.313814C0.126428 0.514746 0 0.787268 0 1.07143C0 1.35559 0.126428 1.62811 0.351472 1.82904C0.576515 2.02997 0.88174 2.14286 1.2 2.14286ZM22.8 6.42857H1.2C0.88174 6.42857 0.576515 6.54145 0.351472 6.74239C0.126428 6.94332 0 7.21584 0 7.5C0 7.78416 0.126428 8.05668 0.351472 8.25761C0.576515 8.45855 0.88174 8.57143 1.2 8.57143H22.8C23.1183 8.57143 23.4235 8.45855 23.6485 8.25761C23.8736 8.05668 24 7.78416 24 7.5C24 7.21584 23.8736 6.94332 23.6485 6.74239C23.4235 6.54145 23.1183 6.42857 22.8 6.42857ZM22.8 12.8571H1.2C0.88174 12.8571 0.576515 12.97 0.351472 13.171C0.126428 13.3719 0 13.6444 0 13.9286C0 14.2127 0.126428 14.4853 0.351472 14.6862C0.576515 14.8871 0.88174 15 1.2 15H22.8C23.1183 15 23.4235 14.8871 23.6485 14.6862C23.8736 14.4853 24 14.2127 24 13.9286C24 13.6444 23.8736 13.3719 23.6485 13.171C23.4235 12.97 23.1183 12.8571 22.8 12.8571Z" fill="#003077"/>
</svg>
