<svg width="125" height="121" viewBox="0 0 125 121" fill="none" xmlns="http://www.w3.org/2000/svg">
<path d="M83.3333 50.4166C83.3333 53.0909 82.2358 55.6556 80.2823 57.5466C78.3288 59.4376 75.6793 60.4999 72.9167 60.4999H35.5625C32.8 60.5005 30.151 61.5632 28.1979 63.4543L16.7292 74.5561C16.212 75.0566 15.5531 75.3975 14.8359 75.5355C14.1186 75.6736 13.3752 75.6027 12.6995 75.3318C12.0239 75.0609 11.4464 74.6022 11.04 74.0136C10.6337 73.4251 10.4168 72.7331 10.4167 72.0252V20.1666C10.4167 17.4923 11.5141 14.9276 13.4676 13.0366C15.4211 11.1456 18.0707 10.0833 20.8333 10.0833H72.9167C75.6793 10.0833 78.3288 11.1456 80.2823 13.0366C82.2358 14.9276 83.3333 17.4923 83.3333 20.1666V50.4166Z" stroke="#013176" stroke-width="5" stroke-linecap="round" stroke-linejoin="round"/>
<path d="M104.167 45.375C106.929 45.375 109.579 46.4374 111.532 48.3283C113.486 50.2193 114.583 52.7841 114.583 55.4583V107.317C114.583 108.025 114.366 108.717 113.96 109.305C113.554 109.894 112.976 110.353 112.3 110.624C111.625 110.894 110.881 110.965 110.164 110.827C109.447 110.689 108.788 110.348 108.271 109.848L96.8021 98.7461C94.849 96.855 92.1999 95.7922 89.4375 95.7917H52.0833C49.3207 95.7917 46.6711 94.7293 44.7176 92.8383C42.7641 90.9473 41.6667 88.3826 41.6667 85.7083V80.6667" stroke="#003077" stroke-width="5" stroke-linecap="round" stroke-linejoin="round"/>
</svg>
