<svg width="14" height="11" viewBox="0 0 14 11" fill="none" xmlns="http://www.w3.org/2000/svg">
<path d="M7.68254 7.13885C7.80646 7.18153 7.94606 7.19128 8.07836 7.1665C8.21065 7.14172 8.32774 7.08387 8.41034 7.0025L8.62334 6.79325C8.73512 6.68148 8.88006 6.59075 9.04669 6.52827C9.21332 6.46578 9.39705 6.43325 9.58334 6.43325H11.3833C11.7016 6.43325 12.0068 6.52807 12.2319 6.69686C12.4569 6.86564 12.5833 7.09456 12.5833 7.33325V8.68325C12.5833 8.92195 12.4569 9.15086 12.2319 9.31965C12.0068 9.48843 11.7016 9.58325 11.3833 9.58325C8.51901 9.58325 5.77198 8.72986 3.74659 7.21082C1.7212 5.69177 0.583344 3.63151 0.583344 1.48325C0.583344 1.24456 0.709772 1.01564 0.934815 0.846856C1.15986 0.678073 1.46508 0.583252 1.78334 0.583252H3.58334C3.9016 0.583252 4.20683 0.678073 4.43187 0.846856C4.65692 1.01564 4.78334 1.24456 4.78334 1.48325V2.83325C4.78334 2.97297 4.73997 3.11077 4.65666 3.23574C4.57334 3.36071 4.45238 3.46942 4.30334 3.55325L4.02254 3.7112C3.91239 3.77428 3.83476 3.86402 3.80282 3.96516C3.77088 4.0663 3.78661 4.17262 3.84734 4.26605C4.66735 5.51519 6.016 6.52541 7.68254 7.13885Z" fill="#003077" stroke="#003077" stroke-width="1.16667" stroke-linecap="round" stroke-linejoin="round"/>
</svg>
