<svg width="17" height="18" viewBox="0 0 17 18" fill="none" xmlns="http://www.w3.org/2000/svg">
<path d="M1.41669 7.1254C1.4167 6.2908 1.65582 5.47583 2.10245 4.78814C2.54908 4.10045 3.18222 3.57239 3.91824 3.2737C4.65427 2.975 5.45855 2.91973 6.22486 3.11518C6.99118 3.31063 7.68347 3.74761 8.21031 4.3684C8.24742 4.41041 8.29228 4.4439 8.34212 4.4668C8.39195 4.48969 8.4457 4.50151 8.50002 4.50151C8.55434 4.50151 8.60809 4.48969 8.65792 4.4668C8.70776 4.4439 8.75262 4.41041 8.78973 4.3684C9.31491 3.74357 10.0074 3.30292 10.7749 3.1051C11.5425 2.90727 12.3487 2.96166 13.0864 3.26101C13.824 3.56036 14.4581 4.09049 14.9041 4.78082C15.3502 5.47116 15.5871 6.28897 15.5834 7.1254C15.5834 8.8429 14.5209 10.1254 13.4584 11.2504L9.56819 15.2351C9.4362 15.3957 9.27347 15.5246 9.0908 15.6134C8.90814 15.7022 8.70972 15.7488 8.50872 15.7501C8.30773 15.7515 8.10877 15.7075 7.92506 15.6212C7.74134 15.5349 7.57708 15.4081 7.44319 15.2494L3.54169 11.2504C2.47919 10.1254 1.41669 8.8504 1.41669 7.1254Z" stroke="#003077" stroke-width="2" stroke-linecap="round" stroke-linejoin="round"/>
</svg>
