<svg width="21" height="23" viewBox="0 0 21 23" fill="none" xmlns="http://www.w3.org/2000/svg">
<path d="M8.76727 20.5C8.94282 20.804 9.19529 21.0565 9.49932 21.232C9.80335 21.4075 10.1482 21.4999 10.4993 21.4999C10.8503 21.4999 11.1952 21.4075 11.4992 21.232C11.8033 21.0565 12.0557 20.804 12.2313 20.5" stroke="white" stroke-width="3" stroke-linecap="round" stroke-linejoin="round"/>
<path d="M1.76127 14.826C1.63063 14.9692 1.54442 15.1472 1.51312 15.3385C1.48183 15.5298 1.50679 15.726 1.58498 15.9034C1.66316 16.0807 1.7912 16.2316 1.95352 16.3375C2.11585 16.4434 2.30545 16.4999 2.49927 16.5H18.4993C18.6931 16.5001 18.8827 16.4438 19.0451 16.3381C19.2076 16.2324 19.3358 16.0817 19.4142 15.9045C19.4926 15.7273 19.5178 15.5311 19.4867 15.3398C19.4557 15.1485 19.3697 14.9703 19.2393 14.827C17.9093 13.456 16.4993 11.999 16.4993 7.5C16.4993 5.9087 15.8671 4.38258 14.7419 3.25736C13.6167 2.13214 12.0906 1.5 10.4993 1.5C8.90797 1.5 7.38185 2.13214 6.25663 3.25736C5.13141 4.38258 4.49927 5.9087 4.49927 7.5C4.49927 11.999 3.08827 13.456 1.76127 14.826Z" stroke="white" stroke-width="3" stroke-linecap="round" stroke-linejoin="round"/>
</svg>
