<svg width="39" height="37" viewBox="0 0 39 37" fill="none" xmlns="http://www.w3.org/2000/svg">
<path d="M16.6855 32.375C16.9707 32.8437 17.381 33.2329 17.8751 33.5035C18.3691 33.7741 18.9295 33.9165 19.5 33.9165C20.0705 33.9165 20.6309 33.7741 21.1249 33.5035C21.619 33.2329 22.0292 32.8437 22.3145 32.375" stroke="#003077" stroke-width="3" stroke-linecap="round" stroke-linejoin="round"/>
<path d="M5.30072 23.6276C5.08844 23.8484 4.94835 24.1229 4.89749 24.4178C4.84663 24.7126 4.88719 25.0152 5.01425 25.2886C5.1413 25.562 5.34937 25.7945 5.61314 25.9578C5.87691 26.1211 6.18501 26.2082 6.49997 26.2084H32.5C32.8149 26.2085 33.1231 26.1218 33.387 25.9588C33.6509 25.7958 33.8593 25.5636 33.9867 25.2903C34.1141 25.0171 34.155 24.7146 34.1046 24.4197C34.0541 24.1248 33.9144 23.8501 33.7025 23.6292C31.5412 21.5155 29.25 19.2693 29.25 12.3334C29.25 9.88012 28.2227 7.52735 26.3943 5.79264C24.5658 4.05792 22.0858 3.08337 19.5 3.08337C16.9141 3.08337 14.4342 4.05792 12.6057 5.79264C10.7772 7.52735 9.74997 9.88012 9.74997 12.3334C9.74997 19.2693 7.4571 21.5155 5.30072 23.6276Z" stroke="#003077" stroke-width="3" stroke-linecap="round" stroke-linejoin="round"/>
</svg>
