<svg width="34" height="33" viewBox="0 0 34 33" fill="none" xmlns="http://www.w3.org/2000/svg">
<path d="M18.4167 23.375C18.4167 23.0103 18.2674 22.6606 18.0017 22.4027C17.7361 22.1449 17.3757 22 17 22C16.6243 22 16.2639 22.1449 15.9983 22.4027C15.7326 22.6606 15.5833 23.0103 15.5833 23.375L16.2917 29.5625C16.2917 29.7448 16.3663 29.9197 16.4991 30.0486C16.632 30.1776 16.8121 30.25 17 30.25C17.1879 30.25 17.368 30.1776 17.5009 30.0486C17.6337 29.9197 17.7083 29.7448 17.7083 29.5625L18.4167 23.375Z" fill="#003077" stroke="#003077" stroke-width="2" stroke-linecap="round" stroke-linejoin="round"/>
<path d="M23.8708 25.5475C26.1933 24.1054 27.9716 21.9715 28.9391 19.4658C29.9067 16.96 30.0113 14.2173 29.2373 11.649C28.4633 9.08061 26.8524 6.82497 24.6461 5.22021C22.4398 3.61545 19.7571 2.74805 17 2.74805C14.2429 2.74805 11.5602 3.61545 9.3539 5.22021C7.14763 6.82497 5.53673 9.08061 4.76273 11.649C3.98874 14.2173 4.09334 16.96 5.06086 19.4658C6.02838 21.9715 7.80669 24.1054 10.1292 25.5475" stroke="#003077" stroke-width="2" stroke-linecap="round" stroke-linejoin="round"/>
<path d="M11.3333 19.25C10.5441 18.2286 10.0634 17.014 9.94529 15.7424C9.82715 14.4708 10.0762 13.1924 10.6645 12.0504C11.2528 10.9084 12.1571 9.94801 13.2761 9.27678C14.3951 8.60554 15.6845 8.25 17 8.25C18.3155 8.25 19.6049 8.60554 20.7239 9.27678C21.8429 9.94801 22.7472 10.9084 23.3355 12.0504C23.9238 13.1924 24.1728 14.4708 24.0547 15.7424C23.9366 17.014 23.4559 18.2286 22.6667 19.25" stroke="#003077" stroke-width="2" stroke-linecap="round" stroke-linejoin="round"/>
<path d="M17 16.5C17.7824 16.5 18.4167 15.8844 18.4167 15.125C18.4167 14.3656 17.7824 13.75 17 13.75C16.2176 13.75 15.5833 14.3656 15.5833 15.125C15.5833 15.8844 16.2176 16.5 17 16.5Z" fill="#003077" stroke="#003077" stroke-width="2" stroke-linecap="round" stroke-linejoin="round"/>
</svg>
